<svg xmlns="http://www.w3.org/2000/svg" fill="none" viewBox="0 0 50 50" height="50" width="50">
<path fill="#CCFF00" d="M20.2757 0.16137L38.7579 14.5993L38.947 36.0781L20.5162 48.036L8.77056 38.8508L8.98384 15.7018L19.9872 10.3004L31.0541 19.0381L31.1574 30.7694L20.5137 38.0746L16.294 35.4887L16.1622 20.512L19.7501 17.9985L20.8976 19.6366L18.1714 21.5465L18.2842 34.3626L20.4521 35.6912L29.1481 29.7227L29.0626 20.014L19.7371 12.6512L10.9724 16.9536L10.7796 37.883L20.6244 45.5817L36.9374 34.9979L36.7665 15.5815L20.0644 2.53423L3.18993 11.4387L3.31152 35.7115L1.31154 35.7215L1.18388 10.2359L20.2757 0.16137Z" clip-rule="evenodd" fill-rule="evenodd"></path>
</svg>
